<?xml version="1.0" encoding="UTF-8"?>
<svg width="100px" height="100px" viewBox="0 0 100 100" version="1.1" xmlns="http://www.w3.org/2000/svg" xmlns:xlink="http://www.w3.org/1999/xlink">
    <title>icon/location</title>
    <g id="icon/location" stroke="none" stroke-width="1" fill="none" fill-rule="evenodd">
        <path d="M49,14 C56.1819616,14 62.6848855,16.8952911 67.391743,21.579047 C72.09146,26.2556975 75,32.7159582 75,39.8527579 C75,49.004058 71.4398742,57.7412177 66.9031166,65.0222966 C60.4109818,75.4415761 51.6967812,84 49,84 C46.3032188,84 37.5890182,75.4415761 31.0968834,65.0222966 C26.5601258,57.7412177 23,49.004058 23,39.8527579 C23,32.7159582 25.90854,26.2556975 30.608257,21.579047 C35.3151145,16.8952911 41.8180384,14 49,14 Z M49,27 C45.4101491,27 42.1601491,28.4550746 39.8076118,30.8076118 C37.4550746,33.1601491 36,36.4101491 36,40 C36,43.5898509 37.4550746,46.8398509 39.8076118,49.1923882 C42.1601491,51.5449254 45.4101491,53 49,53 C52.5898509,53 55.8398509,51.5449254 58.1923882,49.1923882 C60.5449254,46.8398509 62,43.5898509 62,40 C62,36.4101491 60.5449254,33.1601491 58.1923882,30.8076118 C55.8398509,28.4550746 52.5898509,27 49,27 Z" id="Combined-Shape" stroke="#8665FE" stroke-width="8"></path>
    </g>
</svg>