<?xml version="1.0" encoding="UTF-8"?>
<svg width="100px" height="100px" viewBox="0 0 100 100" version="1.1" xmlns="http://www.w3.org/2000/svg" xmlns:xlink="http://www.w3.org/1999/xlink">
    <title>icon/home</title>
    <g id="icon/home" stroke="none" stroke-width="1" fill="none" fill-rule="evenodd">
        <path d="M50,16.8074017 L76.3282012,34.3595358 C77.9973932,35.4723305 79,37.3457185 79,39.3518376 L79,39.3518376 L79,78 C79,79.6568542 78.3284271,81.1568542 77.2426407,82.2426407 C76.1568542,83.3284271 74.6568542,84 73,84 L73,84 L61,84 L61,63 L39,63 L39,84 L27,84 C25.3431458,84 23.8431458,83.3284271 22.7573593,82.2426407 C21.6715729,81.1568542 21,79.6568542 21,78 L21,78 L21,39.3518376 C21,37.3457185 22.0026068,35.4723305 23.6717988,34.3595358 L23.6717988,34.3595358 L50,16.8074017 Z" id="Rectangle" stroke="#8665FE" stroke-width="8"></path>
    </g>
</svg>