<?xml version="1.0" encoding="UTF-8"?>
<svg width="80px" height="80px" viewBox="0 0 80 80" version="1.1" xmlns="http://www.w3.org/2000/svg" xmlns:xlink="http://www.w3.org/1999/xlink">
    <title>icon-lock</title>
    <g id="icon-lock" stroke="none" stroke-width="1" fill="none" fill-rule="evenodd">
        <path d="M49,10 C54.5228475,10 59,14.4771525 59,20 L59,33 L60,33 C65.5228475,33 70,37.4771525 70,43 L70,65 C70,70.5228475 65.5228475,75 60,75 L20,75 C14.4771525,75 10,70.5228475 10,65 L10,43 C10,37.4771525 14.4771525,33 20,33 L21,33 L21,20 C21,14.4771525 25.4771525,10 31,10 L49,10 Z M60,40 L20,40 C18.3431458,40 17,41.3431458 17,43 L17,43 L17,65 C17,66.6568542 18.3431458,68 20,68 L20,68 L60,68 C61.6568542,68 63,66.6568542 63,65 L63,65 L63,43 C63,41.3431458 61.6568542,40 60,40 L60,40 Z M49,17 L31,17 C29.4023191,17 28.0963391,18.24892 28.0050927,19.8237272 L28,20 L28,33 L52,33 L52,20 C52,18.4023191 50.75108,17.0963391 49.1762728,17.0050927 L49,17 Z" id="Combined-Shape" fill="#8665FE"></path>
        <circle id="Oval" fill="#8665FE" cx="40" cy="51" r="5"></circle>
        <rect id="Rectangle" fill="#8665FE" x="37" y="51" width="6" height="12" rx="3"></rect>
    </g>
</svg>