<?xml version="1.0" encoding="UTF-8"?>
<svg width="7553px" height="1705px" viewBox="0 0 7553 1705" version="1.1" xmlns="http://www.w3.org/2000/svg" xmlns:xlink="http://www.w3.org/1999/xlink">
    <title>Combined Shape</title>
    <g id="styleguide" stroke="none" stroke-width="1" fill="none" fill-rule="evenodd">
        <g id="Artboard" transform="translate(-869.000000, -2536.000000)" fill="#8665FE" fill-rule="nonzero">
            <path d="M4898.42092,3202.45455 C5087.97251,3202.45455 5244.24404,3369.72727 5244.24404,3586.45455 C5244.24404,3803.18182 5087.97251,3970.45455 4898.42092,3970.45455 C4801.4747,3970.45455 4730.57372,3937 4682.82409,3881.72727 L4682.82409,3881.72727 L4682.82409,4241 L4465.78029,4241 L4465.78029,3222.81818 L4682.82409,3222.81818 L4682.82409,3291.18182 C4730.57372,3235.90909 4801.4747,3202.45455 4898.42092,3202.45455 Z M2213,2536 L2213,3512.67992 L2212.90443,3524.47597 C2206.66795,3909.10592 1895.98828,4219.73227 1511.32502,4225.90633 L1499.64615,4226 L869,4226 L869,3600.38346 L869.095569,3583.58765 C875.332053,3198.9577 1186.01172,2888.33135 1570.67498,2882.15728 L1582.35385,2882.06362 L1624.61475,2882.04517 C1739.26759,2678.54357 1955.86907,2540.13222 2205.13612,2536.09092 L2213,2536 Z M3260.46375,2931.90909 L3260.46375,3950.09091 L3043.41995,3950.09091 L3043.41995,3881.72727 C2995.67032,3937 2924.76934,3970.45455 2827.82311,3970.45455 C2638.27153,3970.45455 2482,3803.18182 2482,3586.45455 C2482,3369.72727 2638.27153,3202.45455 2827.82311,3202.45455 C2924.76934,3202.45455 2995.67032,3235.90909 3043.41995,3291.18182 L3043.41995,3291.18182 L3043.41995,2931.90909 L3260.46375,2931.90909 Z M4062.54842,3202.45455 C4179.75207,3202.45455 4283.93309,3254.81818 4344.70535,3358.09091 L4344.70535,3358.09091 L4159.49465,3458.45455 C4139.23723,3420.63636 4110.29805,3394.45455 4062.54842,3394.45455 C4024.92749,3394.45455 4001.77616,3409 4001.77616,3435.18182 C4001.77616,3518.09091 4357.72798,3462.81818 4357.72798,3731.90909 C4357.72798,3899.18182 4213.03212,3970.45455 4056.76058,3970.45455 C3912.06472,3970.45455 3802.09586,3915.18182 3745.66448,3797.36364 L3745.66448,3797.36364 L3933.7691,3689.72727 C3952.57956,3745 3993.0944,3775.54545 4056.76058,3775.54545 C4108.85109,3775.54545 4134.89635,3759.54545 4134.89635,3730.45455 C4134.89635,3650.45455 3778.94453,3692.63636 3778.94453,3441 C3778.94453,3282.45455 3912.06472,3202.45455 4062.54842,3202.45455 Z M5708.71776,3202.45455 C5919.97372,3202.45455 6076.24526,3366.81818 6076.24526,3586.45455 C6076.24526,3617 6073.35134,3646.09091 6067.5635,3673.72727 L6067.5635,3673.72727 L5553.89319,3673.72727 C5581.3854,3749.36364 5647.9455,3775.54545 5727.52822,3775.54545 C5786.85353,3775.54545 5837.49708,3752.27273 5866.43625,3720.27273 L5866.43625,3720.27273 L6040.07129,3820.63636 C5969.17032,3919.54545 5862.09538,3970.45455 5724.63431,3970.45455 C5477.20438,3970.45455 5323.82676,3803.18182 5323.82676,3586.45455 C5323.82676,3369.72727 5480.0983,3202.45455 5708.71776,3202.45455 Z M7301.81922,3202.45455 C7419.02287,3202.45455 7523.20389,3234.81818 7583.97616,3338.09091 L7583.97616,3338.09091 L7418.76545,3438.45455 C7398.50803,3400.63636 7349.56886,3394.45455 7301.81922,3394.45455 C7264.1983,3394.45455 7241.04696,3409 7241.04696,3435.18182 C7241.04696,3518.09091 7596.99878,3462.81818 7596.99878,3731.90909 C7596.99878,3899.18182 7452.30292,3970.45455 7296.03139,3970.45455 C7151.33552,3970.45455 7041.36667,3915.18182 6984.93528,3797.36364 L6984.93528,3797.36364 L7153.0399,3709.72727 C7171.85036,3765 7232.36521,3785.54545 7296.03139,3785.54545 C7348.1219,3785.54545 7374.16715,3759.54545 7374.16715,3730.45455 C7374.16715,3650.45455 7018.21533,3692.63636 7018.21533,3441 C7018.21533,3282.45455 7151.33552,3202.45455 7301.81922,3202.45455 Z M8054.47251,3202.45455 C8265.72847,3202.45455 8422,3366.81818 8422,3586.45455 C8422,3617 8419.10608,3646.09091 8413.31825,3673.72727 L8413.31825,3673.72727 L7899.64793,3673.72727 C7927.14015,3749.36364 7993.70024,3775.54545 8073.28297,3775.54545 C8132.60827,3775.54545 8183.25182,3752.27273 8212.191,3720.27273 L8212.191,3720.27273 L8385.82603,3820.63636 C8314.92506,3919.54545 8207.85012,3970.45455 8070.38905,3970.45455 C7822.95912,3970.45455 7669.58151,3803.18182 7669.58151,3586.45455 C7669.58151,3369.72727 7825.85304,3202.45455 8054.47251,3202.45455 Z M3641.90779,3222.81818 L3641.90779,3950.09091 L3424.86399,3950.09091 L3424.86399,3222.81818 L3641.90779,3222.81818 Z M6608.72603,3202.45455 C6754.86886,3202.45455 6879.3073,3307.18182 6879.3073,3503.54545 L6879.3073,3503.54545 L6879.3073,3950.09091 L6662.2635,3950.09091 L6662.2635,3535.54545 C6662.2635,3445.36364 6605.83212,3403.18182 6536.3781,3403.18182 C6456.79538,3403.18182 6401.81095,3449.72727 6401.81095,3553 L6401.81095,3553 L6401.81095,3950.09091 L6184.76715,3950.09091 L6184.76715,3222.81818 L6401.81095,3222.81818 L6401.81095,3291.18182 C6440.87883,3237.36364 6513.22676,3202.45455 6608.72603,3202.45455 Z M1537.64,3194.52883 C1337.93255,3216.38672 1182.3628,3384.24321 1179.20277,3589.03814 L1179.15385,3595.3837 L1179.15385,3915.87117 L1351,3915.87895 C1451,3915.93468 1538,3829.34838 1537.64,3728.94353 C1537.7516,3712.33129 1537.79401,3654.66139 1537.7994,3582.98601 L1537.79925,3547.32484 C1537.79741,3522.97338 1537.79225,3497.61857 1537.78487,3472.16847 L1537.78018,3456.89424 C1537.73982,3332.17997 1537.65105,3209.53839 1537.64094,3195.80254 L1537.64,3194.52883 L1537.64,3194.52883 Z M2871.23187,3409 C2771.39173,3409 2699.0438,3477.36364 2699.0438,3586.45455 C2699.0438,3695.54545 2771.39173,3763.90909 2871.23187,3763.90909 C2971.07202,3763.90909 3043.41995,3695.54545 3043.41995,3586.45455 C3043.41995,3477.36364 2971.07202,3409 2871.23187,3409 Z M4855.01217,3409 C4755.17202,3409 4682.82409,3477.36364 4682.82409,3586.45455 C4682.82409,3695.54545 4755.17202,3763.90909 4855.01217,3763.90909 C4954.85231,3763.90909 5027.20024,3695.54545 5027.20024,3586.45455 C5027.20024,3477.36364 4954.85231,3409 4855.01217,3409 Z M5707.2708,3395.90909 C5624.79416,3395.90909 5569.80973,3436.63636 5549.55231,3510.81818 L5549.55231,3510.81818 L5860.64842,3510.81818 C5837.49708,3426.45455 5772.38394,3395.90909 5707.2708,3395.90909 Z M8053.02555,3395.90909 C7970.54891,3395.90909 7915.56448,3436.63636 7895.30706,3510.81818 L7895.30706,3510.81818 L8206.40316,3510.81818 C8183.25182,3426.45455 8118.13869,3395.90909 8053.02555,3395.90909 Z M3533.52,2932 C3592.60311,2932 3642.04,2981.43689 3642.04,3040.52 C3642.04,3099.60311 3592.60311,3149.04 3533.52,3149.04 C3474.43689,3149.04 3425,3099.60311 3425,3040.52 C3425,2981.43689 3474.43689,2932 3533.52,2932 Z" id="Combined-Shape"></path>
        </g>
    </g>
</svg>